<svg width="29" height="28" viewBox="0 0 29 28" fill="none" xmlns="http://www.w3.org/2000/svg">
<g id="carrinho" clip-path="url(#clip0_4_2773)">
<path id="Icon" d="M1.20834 1.16666H6.04168L9.28001 16.7883C9.39051 17.3255 9.69315 17.8079 10.135 18.1513C10.5768 18.4947 11.1296 18.6771 11.6967 18.6667H23.4417C24.0087 18.6771 24.5616 18.4947 25.0034 18.1513C25.4452 17.8079 25.7478 17.3255 25.8583 16.7883L27.7917 6.99999H7.25001M12.0833 24.5C12.0833 25.1443 11.5424 25.6667 10.875 25.6667C10.2077 25.6667 9.66668 25.1443 9.66668 24.5C9.66668 23.8557 10.2077 23.3333 10.875 23.3333C11.5424 23.3333 12.0833 23.8557 12.0833 24.5ZM25.375 24.5C25.375 25.1443 24.834 25.6667 24.1667 25.6667C23.4993 25.6667 22.9583 25.1443 22.9583 24.5C22.9583 23.8557 23.4993 23.3333 24.1667 23.3333C24.834 23.3333 25.375 23.8557 25.375 24.5Z" stroke="#6A4D83" stroke-width="4" stroke-linecap="round" stroke-linejoin="round"/>
</g>
<defs>
<clipPath id="clip0_4_2773">
<rect width="29" height="28" fill="white"/>
</clipPath>
</defs>
</svg>
